<svg xmlns="http://www.w3.org/2000/svg" width="1600" height="820" viewBox="0 0 1600 820" role="img" aria-labelledby="title desc">
    <title id="title">第一性原理：P9 拆解—重构循环</title><desc id="desc">从最低充分基底出发，构造结构不同的竞争方案，并用证伪与不确定性决定下一步。</desc>
    <defs>
      <linearGradient id="principles-zh-bg" x1="0" y1="0" x2="1" y2="1"><stop offset="0" stop-color="#050b14"/><stop offset=".55" stop-color="#0a1930"/><stop offset="1" stop-color="#10112a"/></linearGradient>
      <linearGradient id="principles-zh-cyan" x1="0" y1="0" x2="1" y2="1"><stop offset="0" stop-color="#5de4ff"/><stop offset="1" stop-color="#3c8dff"/></linearGradient>
      <linearGradient id="principles-zh-gold" x1="0" y1="0" x2="1" y2="1"><stop offset="0" stop-color="#ffe29a"/><stop offset="1" stop-color="#f7bf5a"/></linearGradient>
      <linearGradient id="principles-zh-violet" x1="0" y1="0" x2="1" y2="1"><stop offset="0" stop-color="#e7c8ff"/><stop offset="1" stop-color="#b68cff"/></linearGradient>
      <linearGradient id="principles-zh-mint" x1="0" y1="0" x2="1" y2="1"><stop offset="0" stop-color="#b5ffe7"/><stop offset="1" stop-color="#55e3b2"/></linearGradient>
      <radialGradient id="principles-zh-halo"><stop offset="0" stop-color="#5de4ff" stop-opacity=".32"/><stop offset="1" stop-color="#5de4ff" stop-opacity="0"/></radialGradient>
      <pattern id="principles-zh-grid" width="44" height="44" patternUnits="userSpaceOnUse"><path d="M44 0H0V44" fill="none" stroke="#7aa2cc" stroke-opacity=".08" stroke-width="1"/></pattern>
      <filter id="principles-zh-glow" x="-70%" y="-70%" width="240%" height="240%"><feGaussianBlur stdDeviation="7" result="b"/><feMerge><feMergeNode in="b"/><feMergeNode in="SourceGraphic"/></feMerge></filter>
      <filter id="principles-zh-shadow" x="-40%" y="-40%" width="180%" height="190%"><feDropShadow dx="0" dy="12" stdDeviation="12" flood-color="#000814" flood-opacity=".25"/></filter>
      <marker id="principles-zh-arrow" viewBox="0 0 10 10" refX="9" refY="5" markerWidth="8" markerHeight="8" orient="auto"><path d="M0 0L10 5L0 10Z" fill="#5de4ff"/></marker>
      <clipPath id="principles-zh-sceneclip"><rect x="870" y="0" width="730" height="480" rx="28"/></clipPath>
      <linearGradient id="principles-zh-fade" x1="0" x2="1"><stop offset="0" stop-color="#050b14" stop-opacity="1"/><stop offset=".35" stop-color="#050b14" stop-opacity=".55"/><stop offset="1" stop-color="#050b14" stop-opacity="0"/></linearGradient>
      
      <style>
        .title{font:700 50px Noto Sans CJK SC,Microsoft YaHei,PingFang SC,sans-serif;fill:#f5fbff;letter-spacing:-.5px}
        .subtitle{font:400 21px Noto Sans CJK SC,Microsoft YaHei,PingFang SC,sans-serif;fill:#a8bfd3}
        .h2{font:700 29px Noto Sans CJK SC,Microsoft YaHei,PingFang SC,sans-serif;fill:#f5fbff}
        .h3{font:700 21px Noto Sans CJK SC,Microsoft YaHei,PingFang SC,sans-serif;fill:#f5fbff}
        .body{font:400 18px Noto Sans CJK SC,Microsoft YaHei,PingFang SC,sans-serif;fill:#a8bfd3}
        .small{font:500 15px Noto Sans CJK SC,Microsoft YaHei,PingFang SC,sans-serif;fill:#a8bfd3}
        .tiny{font:700 12px Noto Sans CJK SC,Microsoft YaHei,PingFang SC,sans-serif;fill:#6f8aa5;letter-spacing:.8px}
        .formula{font:500 18px Noto Sans CJK SC,DejaVu Sans Mono,monospace;fill:#f5fbff}
        .formula2{font:600 21px Noto Sans CJK SC,DejaVu Sans,serif;fill:#f5fbff}
        .card{fill:#0e1c2e;fill-opacity:.84;stroke:#314a66;stroke-width:1.2}
        .card2{fill:#101f34;fill-opacity:.84;stroke:#314a66;stroke-width:1.1}
      </style>
    </defs>
    <rect width="1600" height="820" rx="30" fill="url(#principles-zh-bg)"/>
    <rect width="1600" height="820" rx="30" fill="url(#principles-zh-grid)"/>
    
    <circle cx="1320" cy="120" r="330" fill="url(#principles-zh-halo)"/>
    <circle cx="210" cy="760" r="330" fill="url(#principles-zh-halo)" opacity=".35"/>
    <text x="84" y="62" class="tiny">ENGINE P · DECOMPOSE / RECONSTRUCT</text><text x="84" y="118" class="title">第一性原理：P9 拆解—重构循环</text>
    <text x="84" y="158" class="subtitle">从最低充分基底出发，构造结构不同的竞争方案，并用证伪与不确定性决定下一步。</text><path d="M 814.4,469.4 L 815.4,468.5 L 816.5,467.7 L 817.7,467.0 L 819.1,466.2 L 820.6,465.6 L 822.3,465.0 L 824.1,464.5 L 826.1,464.1 L 828.1,463.7 L 830.3,463.5 L 832.5,463.4 L 834.8,463.4 L 837.2,463.5 L 839.6,463.8 L 842.0,464.1 L 844.5,464.7 L 846.9,465.3 L 849.3,466.1 L 851.6,467.0 L 853.9,468.0 L 856.1,469.2 L 858.1,470.5 L 860.1,472.0 L 861.9,473.5 L 863.6,475.2 L 865.0,477.0 L 866.3,478.9 L 867.4,480.8 L 868.2,482.9 L 868.8,485.1 L 869.2,487.3 L 869.3,489.5 L 869.1,491.8 L 868.6,494.2 L 867.9,496.5 L 866.8,498.8 L 865.5,501.2 L 863.8,503.5 L 861.9,505.7 L 859.6,507.9 L 857.1,510.1 L 854.3,512.1 L 851.2,514.0 L 847.8,515.9 L 844.2,517.6 L 840.3,519.1 L 836.2,520.5 L 831.9,521.8 L 827.4,522.8 L 822.7,523.7 L 817.8,524.3 L 812.9,524.8 L 807.8,525.0 L 802.6,525.0 L 797.4,524.8 L 792.1,524.4 L 786.8,523.7 L 781.6,522.7 L 776.4,521.5 L 771.3,520.1 L 766.3,518.5 L 761.4,516.6 L 756.8,514.4 L 752.3,512.1 L 748.0,509.5 L 744.0,506.7 L 740.3,503.7 L 736.9,500.5 L 733.9,497.1 L 731.2,493.6 L 728.8,489.9 L 726.9,486.1 L 725.4,482.2 L 724.3,478.1 L 723.7,474.0 L 723.6,469.8 L 723.9,465.6 L 724.7,461.4 L 726.0,457.2 L 727.8,453.0 L 730.1,448.8 L 732.8,444.7 L 736.1,440.7 L 739.8,436.8 L 744.0,433.1 L 748.7,429.5 L 753.8,426.1 L 759.3,422.8 L 765.2,419.8 L 771.5,417.1 L 778.2,414.5 L 785.2,412.3 L 792.4,410.4 L 800.0,408.7 L 807.8,407.4 L 815.8,406.4 L 823.9,405.7 L 832.2,405.4 L 840.6,405.5 L 849.0,405.9 L 857.4,406.7 L 865.8,407.8 L 874.1,409.3 L 882.2,411.2 L 890.3,413.5 L 898.0,416.1 L 905.6,419.0 L 912.9,422.4 L 919.8,426.0 L 926.3,430.0 L 932.5,434.2 L 938.2,438.8 L 943.4,443.6 L 948.1,448.7 L 952.2,454.0 L 955.8,459.5 L 958.8,465.1 L 961.2,471.0 L 962.9,477.0 L 963.9,483.1 L 964.3,489.2 L 964.0,495.4 L 963.0,501.6 L 961.2,507.8 L 958.8,514.0 L 955.7,520.1 L 951.9,526.0 L 947.4,531.9 L 942.2,537.5 L 936.4,543.0 L 929.9,548.2 L 922.8,553.2 L 915.2,557.9 L 906.9,562.3 L 898.2,566.4 L 888.9,570.1 L 879.2,573.4 L 869.1,576.3 L 858.6,578.8 L 847.8,580.8 L 836.8,582.4 L 825.5,583.5 L 814.0,584.2 L 802.5,584.3 L 790.8,584.0 L 779.2,583.1 L 767.6,581.8 L 756.1,579.9 L 744.8,577.6 L 733.7,574.8 L 722.9,571.4 L 712.4,567.6 L 702.3,563.3 L 692.7,558.6 L 683.5,553.5 L 674.9,547.9 L 666.9,542.0 L 659.5,535.7 L 652.8,529.0 L 646.8,522.1 L 641.6,514.8 L 637.1,507.3 L 633.5,499.6 L 630.7,491.8 L 628.8,483.7 L 627.8,475.6 L 627.7,467.4 L 628.5,459.2 L 630.2,451.0 L 632.9,442.8 L 636.4,434.7 L 640.9,426.8 L 646.3,419.0 L 652.5,411.4 L 659.6,404.1 L 667.6,397.1 L 676.3,390.3 L 685.9,384.0 L 696.1,378.0 L 707.1,372.4 L 718.7,367.3 L 730.9,362.7 L 743.6,358.6 L 756.9,355.0 L 770.5,352.0 L 784.6,349.6 L 798.9,347.7 L 813.5,346.5 L 828.2,345.9 L 843.1,345.9 L 858.0,346.6 L 872.9,347.9 L 887.6,349.8 L 902.2,352.3 L 916.5,355.5 L 930.5,359.4 L 944.2,363.8 L 957.3,368.8 L 969.9,374.4 L 982.0,380.5 L 993.3,387.2 L 1004.0,394.3 L 1013.9,402.0 L 1022.9,410.0 L 1031.1,418.5 L 1038.4,427.4 L 1044.7,436.6 L 1050.0,446.0 L 1054.2,455.7 L 1057.4,465.6 L 1059.4,475.7 L 1060.4,485.9 L 1060.2,496.1 L 1058.9,506.4 L 1056.5,516.6 L 1052.9,526.7 L 1048.2,536.7 L 1042.4,546.5 L 1035.4,556.1 L 1027.4,565.4 L 1018.4,574.4 L 1008.3,583.0 L 997.2,591.2 L 985.3,598.9 L 972.4,606.2 L 958.7,612.9 L 944.3,619.0 L 929.1,624.5 L 913.3,629.4 L 896.9,633.7 L 880.1,637.2 L 862.8,640.0 L 845.2,642.1 L 827.3,643.4 L 809.2,644.0 L 791.1,643.8 L 772.9,642.8 L 754.8,641.1 L 736.9,638.6" fill="none" stroke="url(#principles-zh-mint)" stroke-width="5" opacity=".78"/><circle cx="842.0" cy="464.1" r="31" fill="#0e1c2e" stroke="#5de4ff" stroke-width="3" filter="url(#principles-zh-glow)"/><text x="842.0" y="470.1" text-anchor="middle" style="font:800 18px Noto Sans CJK SC,Microsoft YaHei,PingFang SC,sans-serif;fill:#5de4ff">1</text><circle cx="865.5" cy="501.2" r="31" fill="#0e1c2e" stroke="#55e3b2" stroke-width="3" filter="url(#principles-zh-glow)"/><text x="865.5" y="507.2" text-anchor="middle" style="font:800 18px Noto Sans CJK SC,Microsoft YaHei,PingFang SC,sans-serif;fill:#55e3b2">2</text><circle cx="766.3" cy="518.5" r="31" fill="#0e1c2e" stroke="#f7bf5a" stroke-width="3" filter="url(#principles-zh-glow)"/><text x="766.3" y="524.5" text-anchor="middle" style="font:800 18px Noto Sans CJK SC,Microsoft YaHei,PingFang SC,sans-serif;fill:#f7bf5a">3</text><circle cx="759.3" cy="422.8" r="31" fill="#0e1c2e" stroke="#b68cff" stroke-width="3" filter="url(#principles-zh-glow)"/><text x="759.3" y="428.8" text-anchor="middle" style="font:800 18px Noto Sans CJK SC,Microsoft YaHei,PingFang SC,sans-serif;fill:#b68cff">4</text><circle cx="958.8" cy="465.1" r="31" fill="#0e1c2e" stroke="#ff6b72" stroke-width="3" filter="url(#principles-zh-glow)"/><text x="958.8" y="471.1" text-anchor="middle" style="font:800 18px Noto Sans CJK SC,Microsoft YaHei,PingFang SC,sans-serif;fill:#ff6b72">5</text><circle cx="756.1" cy="579.9" r="31" fill="#0e1c2e" stroke="#3c8dff" stroke-width="3" filter="url(#principles-zh-glow)"/><text x="756.1" y="585.9" text-anchor="middle" style="font:800 18px Noto Sans CJK SC,Microsoft YaHei,PingFang SC,sans-serif;fill:#3c8dff">6</text><circle cx="696.1" cy="378.0" r="31" fill="#0e1c2e" stroke="#5de4ff" stroke-width="3" filter="url(#principles-zh-glow)"/><text x="696.1" y="384.0" text-anchor="middle" style="font:800 18px Noto Sans CJK SC,Microsoft YaHei,PingFang SC,sans-serif;fill:#5de4ff">7</text><circle cx="1044.7" cy="436.6" r="31" fill="#0e1c2e" stroke="#55e3b2" stroke-width="3" filter="url(#principles-zh-glow)"/><text x="1044.7" y="442.6" text-anchor="middle" style="font:800 18px Noto Sans CJK SC,Microsoft YaHei,PingFang SC,sans-serif;fill:#55e3b2">8</text><circle cx="809.2" cy="644.0" r="31" fill="#0e1c2e" stroke="#f7bf5a" stroke-width="3" filter="url(#principles-zh-glow)"/><text x="809.2" y="650.0" text-anchor="middle" style="font:800 18px Noto Sans CJK SC,Microsoft YaHei,PingFang SC,sans-serif;fill:#f7bf5a">9</text><rect x="80" y="250" width="430" height="420" rx="26" class="card"/><text x="295" y="300" text-anchor="middle" class="h2">向下拆解</text><rect x="130.0" y="340" width="330" height="42" rx="14" fill="#5de4ff" opacity=".12" stroke="#5de4ff"/><text x="295" y="367" text-anchor="middle" class="h3">问题</text><line x1="295" y1="382" x2="295" y2="400" stroke="#a8bfd3" stroke-width="2" marker-end="url(#principles-zh-arrow)"/><rect x="153.0" y="402" width="284" height="42" rx="14" fill="#55e3b2" opacity=".12" stroke="#55e3b2"/><text x="295" y="429" text-anchor="middle" class="h3">功能</text><line x1="295" y1="444" x2="295" y2="462" stroke="#a8bfd3" stroke-width="2" marker-end="url(#principles-zh-arrow)"/><rect x="176.0" y="464" width="238" height="42" rx="14" fill="#f7bf5a" opacity=".12" stroke="#f7bf5a"/><text x="295" y="491" text-anchor="middle" class="h3">约束</text><line x1="295" y1="506" x2="295" y2="524" stroke="#a8bfd3" stroke-width="2" marker-end="url(#principles-zh-arrow)"/><rect x="199.0" y="526" width="192" height="42" rx="14" fill="#b68cff" opacity=".12" stroke="#b68cff"/><text x="295" y="553" text-anchor="middle" class="h3">命题</text><line x1="295" y1="568" x2="295" y2="586" stroke="#a8bfd3" stroke-width="2" marker-end="url(#principles-zh-arrow)"/><rect x="222.0" y="588" width="146" height="42" rx="14" fill="#ff6b72" opacity=".12" stroke="#ff6b72"/><text x="295" y="615" text-anchor="middle" class="h3">基底</text><rect x="120" y="612" width="350" height="38" rx="12" fill="#f7bf5a" opacity=".12" stroke="#f7bf5a"/><text x="295" y="637" text-anchor="middle" class="formula">D/O/L/C/A/E/V/U</text><rect x="1080" y="220" width="440" height="450" rx="26" class="card"/><text x="1300" y="270" text-anchor="middle" class="h2">P9 协议</text><circle cx="1122" cy="306" r="13" fill="#5de4ff" opacity=".18" stroke="#5de4ff"/><text x="1122" y="311" text-anchor="middle" class="tiny">1</text><text x="1150" y="312" class="small">删除/修改/证明需求</text><circle cx="1122" cy="344" r="13" fill="#55e3b2" opacity=".18" stroke="#55e3b2"/><text x="1122" y="349" text-anchor="middle" class="tiny">2</text><text x="1150" y="350" class="small">结果与边界</text><circle cx="1122" cy="382" r="13" fill="#f7bf5a" opacity=".18" stroke="#f7bf5a"/><text x="1122" y="387" text-anchor="middle" class="tiny">3</text><text x="1150" y="388" class="small">暴露假设</text><circle cx="1122" cy="420" r="13" fill="#b68cff" opacity=".18" stroke="#b68cff"/><text x="1122" y="425" text-anchor="middle" class="tiny">4</text><text x="1150" y="426" class="small">向下拆解</text><circle cx="1122" cy="458" r="13" fill="#ff6b72" opacity=".18" stroke="#ff6b72"/><text x="1122" y="463" text-anchor="middle" class="tiny">5</text><text x="1150" y="464" class="small">识别基底命题</text><circle cx="1122" cy="496" r="13" fill="#3c8dff" opacity=".18" stroke="#3c8dff"/><text x="1122" y="501" text-anchor="middle" class="tiny">6</text><text x="1150" y="502" class="small">建模与约束</text><circle cx="1122" cy="534" r="13" fill="#5de4ff" opacity=".18" stroke="#5de4ff"/><text x="1122" y="539" text-anchor="middle" class="tiny">7</text><text x="1150" y="540" class="small">构造竞争方案</text><circle cx="1122" cy="572" r="13" fill="#55e3b2" opacity=".18" stroke="#55e3b2"/><text x="1122" y="577" text-anchor="middle" class="tiny">8</text><text x="1150" y="578" class="small">计算与证伪</text><circle cx="1122" cy="610" r="13" fill="#f7bf5a" opacity=".18" stroke="#f7bf5a"/><text x="1122" y="615" text-anchor="middle" class="tiny">9</text><text x="1150" y="616" class="small">决策与迭代</text><rect x="170" y="714" width="1260" height="58" rx="20" class="card"/><text x="800" y="750" text-anchor="middle" class="formula2">方案 = 重构(已审查基底, 硬约束, 目标函数, 允许的不确定性)</text></svg>