<svg xmlns="http://www.w3.org/2000/svg" width="1400" height="820" viewBox="0 0 1400 820" role="img" aria-labelledby="title desc">
<title id="title">Multi-Agent Scientific Orchestration</title><desc id="desc">Specialized agents collaborate through a shared, auditable project ledger.</desc>
<defs>
  <linearGradient id="bg" x1="0" y1="0" x2="1" y2="1"><stop offset="0" stop-color="#07111f"/><stop offset="1" stop-color="#0b1d31"/></linearGradient>
  <linearGradient id="accent" x1="0" y1="0" x2="1" y2="0"><stop offset="0" stop-color="#3dd9ff"/><stop offset="0.5" stop-color="#5d8cff"/><stop offset="1" stop-color="#aa7cff"/></linearGradient>
  <filter id="shadow" x="-20%" y="-20%" width="140%" height="140%"><feDropShadow dx="0" dy="8" stdDeviation="12" flood-color="#000" flood-opacity=".35"/></filter>
  <marker id="arrow" viewBox="0 0 10 10" refX="8" refY="5" markerWidth="8" markerHeight="8" orient="auto-start-reverse"><path d="M0,0 L10,5 L0,10 z" fill="#3dd9ff"/></marker>
</defs>
<rect width="100%" height="100%" fill="url(#bg)" rx="28"/>
<rect x="36" y="28" width="1328" height="110" rx="22" fill="#0f2238" stroke="#24425f"/>
<rect x="36" y="28" width="10" height="110" rx="5" fill="url(#accent)"/>
<text x="76" y="76" font-family="Inter,Segoe UI,Arial,sans-serif" font-size="34" font-weight="700" fill="#eef7ff">Multi-Agent Scientific Orchestration</text>
<text x="76" y="110" font-family="Inter,Segoe UI,Arial,sans-serif" font-size="18" fill="#9eb3c8">Specialized agents collaborate through a shared, auditable project ledger.</text>
<rect x="535" y="175" width="330" height="150" rx="20" fill="#132b46" stroke="#3dd9ff" stroke-opacity=".55" filter="url(#shadow)"/><rect x="535" y="175" width="330" height="8" rx="4" fill="#3dd9ff"/><text x="559" y="217" font-family="Inter,Segoe UI,Arial,sans-serif" font-size="22" font-weight="700" fill="#eef7ff">Research Planner</text><text x="559" y="249" font-family="Inter,Segoe UI,Arial,sans-serif" font-size="15" fill="#9eb3c8">decomposes the request</text><text x="559" y="273" font-family="Inter,Segoe UI,Arial,sans-serif" font-size="15" fill="#9eb3c8">selects one primary workflow</text><rect x="90" y="430" width="210" height="170" rx="20" fill="#132b46" stroke="#5d8cff" stroke-opacity=".55" filter="url(#shadow)"/><rect x="90" y="430" width="210" height="8" rx="4" fill="#5d8cff"/><text x="114" y="472" font-family="Inter,Segoe UI,Arial,sans-serif" font-size="22" font-weight="700" fill="#eef7ff">Literature Agent</text><text x="114" y="504" font-family="Inter,Segoe UI,Arial,sans-serif" font-size="15" fill="#9eb3c8">retrieval plan</text><text x="114" y="528" font-family="Inter,Segoe UI,Arial,sans-serif" font-size="15" fill="#9eb3c8">evidence extraction</text><rect x="370" y="430" width="210" height="170" rx="20" fill="#132b46" stroke="#55e6a5" stroke-opacity=".55" filter="url(#shadow)"/><rect x="370" y="430" width="210" height="8" rx="4" fill="#55e6a5"/><text x="394" y="472" font-family="Inter,Segoe UI,Arial,sans-serif" font-size="22" font-weight="700" fill="#eef7ff">Data Agent</text><text x="394" y="504" font-family="Inter,Segoe UI,Arial,sans-serif" font-size="15" fill="#9eb3c8">schema checks</text><text x="394" y="528" font-family="Inter,Segoe UI,Arial,sans-serif" font-size="15" fill="#9eb3c8">statistics and UQ</text><rect x="650" y="430" width="210" height="170" rx="20" fill="#132b46" stroke="#ffb86b" stroke-opacity=".55" filter="url(#shadow)"/><rect x="650" y="430" width="210" height="8" rx="4" fill="#ffb86b"/><text x="674" y="472" font-family="Inter,Segoe UI,Arial,sans-serif" font-size="22" font-weight="700" fill="#eef7ff">Simulation Agent</text><text x="674" y="504" font-family="Inter,Segoe UI,Arial,sans-serif" font-size="15" fill="#9eb3c8">handoff contracts</text><text x="674" y="528" font-family="Inter,Segoe UI,Arial,sans-serif" font-size="15" fill="#9eb3c8">convergence receipts</text><rect x="930" y="430" width="210" height="170" rx="20" fill="#132b46" stroke="#aa7cff" stroke-opacity=".55" filter="url(#shadow)"/><rect x="930" y="430" width="210" height="8" rx="4" fill="#aa7cff"/><text x="954" y="472" font-family="Inter,Segoe UI,Arial,sans-serif" font-size="22" font-weight="700" fill="#eef7ff">Figure Agent</text><text x="954" y="504" font-family="Inter,Segoe UI,Arial,sans-serif" font-size="15" fill="#9eb3c8">visual contracts</text><text x="954" y="528" font-family="Inter,Segoe UI,Arial,sans-serif" font-size="15" fill="#9eb3c8">units and exports</text><rect x="1160" y="430" width="210" height="170" rx="20" fill="#132b46" stroke="#ff6f91" stroke-opacity=".55" filter="url(#shadow)"/><rect x="1160" y="430" width="210" height="8" rx="4" fill="#ff6f91"/><text x="1184" y="472" font-family="Inter,Segoe UI,Arial,sans-serif" font-size="22" font-weight="700" fill="#eef7ff">Review Agent</text><text x="1184" y="504" font-family="Inter,Segoe UI,Arial,sans-serif" font-size="15" fill="#9eb3c8">claim audit</text><text x="1184" y="528" font-family="Inter,Segoe UI,Arial,sans-serif" font-size="15" fill="#9eb3c8">risk escalation</text><path d="M700,325 C447.5,325 447.5,430 195,430" fill="none" stroke="#3dd9ff" stroke-width="3" marker-end="url(#arrow)" opacity=".9"/><path d="M700,325 C587.5,325 587.5,430 475,430" fill="none" stroke="#3dd9ff" stroke-width="3" marker-end="url(#arrow)" opacity=".9"/><path d="M700,325 C727.5,325 727.5,430 755,430" fill="none" stroke="#3dd9ff" stroke-width="3" marker-end="url(#arrow)" opacity=".9"/><path d="M700,325 C867.5,325 867.5,430 1035,430" fill="none" stroke="#3dd9ff" stroke-width="3" marker-end="url(#arrow)" opacity=".9"/><path d="M700,325 C982.5,325 982.5,430 1265,430" fill="none" stroke="#3dd9ff" stroke-width="3" marker-end="url(#arrow)" opacity=".9"/><rect x="480" y="665" width="440" height="90" rx="20" fill="#132b46" stroke="#3dd9ff" stroke-opacity=".55" filter="url(#shadow)"/><rect x="480" y="665" width="440" height="8" rx="4" fill="#3dd9ff"/><text x="504" y="707" font-family="Inter,Segoe UI,Arial,sans-serif" font-size="22" font-weight="700" fill="#eef7ff">Shared Project Ledger</text><text x="504" y="739" font-family="Inter,Segoe UI,Arial,sans-serif" font-size="15" fill="#9eb3c8">state · evidence · claims · decisions · artifacts · approvals</text><path d="M195,600 C447.5,600 447.5,665 700,665" fill="none" stroke="#3dd9ff" stroke-width="3" marker-end="url(#arrow)" opacity=".9"/><path d="M475,600 C587.5,600 587.5,665 700,665" fill="none" stroke="#3dd9ff" stroke-width="3" marker-end="url(#arrow)" opacity=".9"/><path d="M755,600 C727.5,600 727.5,665 700,665" fill="none" stroke="#3dd9ff" stroke-width="3" marker-end="url(#arrow)" opacity=".9"/><path d="M1035,600 C867.5,600 867.5,665 700,665" fill="none" stroke="#3dd9ff" stroke-width="3" marker-end="url(#arrow)" opacity=".9"/><path d="M1265,600 C982.5,600 982.5,665 700,665" fill="none" stroke="#3dd9ff" stroke-width="3" marker-end="url(#arrow)" opacity=".9"/>
<text x="1360" y="790" text-anchor="end" font-family="Inter,Segoe UI,Arial,sans-serif" font-size="14" fill="#6f8aa5">TsaoSciResearcher · evidence-first scientific AI</text>
</svg>